# xmcd
#
# Track frame offsets:
#	150
#	21705
#	47853
#	70153
#	87130
#	99109
#	121268
#	140141
#	163498
#	184256
#	196025
#	223344
#	244156
#	258921
#
# Disc length: 3724 seconds
#
# Revision: 1
# Processed by: cddbd v1.5.2PL0 Copyright (c) Steve Scherf et al.
# Submitted via: audiograbber 1.83.01
#
DISCID=d20e8a0e
DTITLE=Dolus Mutombo - long journey
DYEAR=2014
DGENRE=Singer Songwriter
TTITLE0=Bana mike
TTITLE1=Won't let you go
TTITLE2=Muana mboka
TTITLE3=Histoire
TTITLE4=Khawuleza
TTITLE5=Mama song
TTITLE6=Congo- Kinshasa
TTITLE7=Carry on
TTITLE8=Be free
TTITLE9=Toli
TTITLE10=Take my hand
TTITLE11=Africa
TTITLE12=Baba
TTITLE13=Village
EXTD=
EXTT0=
EXTT1=
EXTT2=
EXTT3=
EXTT4=
EXTT5=
EXTT6=
EXTT7=
EXTT8=
EXTT9=
EXTT10=
EXTT11=
EXTT12=
EXTT13=
PLAYORDER=
